<svg width="678" height="220" viewBox="0 0 678 220" fill="none" xmlns="http://www.w3.org/2000/svg">
<g clip-path="url(#clip0_4_3682)">
<path fill-rule="evenodd" clip-rule="evenodd" d="M107.01 0C57.5 0 15.7 0.02 15.7 0.02C15.7 0.02 120.38 34.48 74.84 104.44C74.84 104.44 152.27 50.23 107.01 0Z" fill="#009DC5"/>
<path fill-rule="evenodd" clip-rule="evenodd" d="M76.37 63.6001C24.79 84.9101 -19.13 140.69 78.71 219.62H161.89C161.89 219.62 -5.78002 120.57 76.37 63.6001Z" fill="#D3D800"/>
<path fill-rule="evenodd" clip-rule="evenodd" d="M4.89999 137.77C4.89999 137.77 -10.45 177.11 13.17 219.61H70.37C41.83 206.74 3.72999 170.82 4.89999 137.77Z" fill="#D3D800"/>
<path fill-rule="evenodd" clip-rule="evenodd" d="M162.01 121.98C163.41 111.55 169.95 104.7 179.28 104.7C189.09 104.7 195.15 111.39 194.83 121.98H162H162.01ZM179.9 92.4102C157.34 92.4102 144.58 109.84 144.58 133.18C144.58 160.41 157.81 172.86 181.93 172.86C191.42 172.86 200.91 171.15 208.69 167.89L207.14 154.67C200.76 157.77 192.51 159.64 184.57 159.64C169.16 159.64 161.24 151.55 161.7 133.65H211.02C211.33 130.7 211.49 128.05 211.49 125.87C211.49 107.51 202.01 92.4102 179.9 92.4102Z" fill="#009DC5"/>
<path fill-rule="evenodd" clip-rule="evenodd" d="M268.29 92.3999C255.22 92.3999 245.88 99.2499 241.37 109.21L241.22 109.04C241.99 104.69 242.3 97.9999 242.3 93.9599H226.43V171.31H243.07V133.95C243.07 118.54 251.63 106.26 263.31 106.26C272.17 106.26 274.83 111.87 274.83 121.51V171.31H291.31V117.16C291.31 103.46 285.87 92.4099 268.29 92.4099V92.3999Z" fill="#009DC5"/>
<path fill-rule="evenodd" clip-rule="evenodd" d="M322.91 121.98C324.31 111.55 330.85 104.7 340.18 104.7C349.98 104.7 356.04 111.39 355.74 121.98H322.91ZM340.81 92.4102C318.25 92.4102 305.48 109.84 305.48 133.18C305.48 160.41 318.71 172.86 342.84 172.86C352.34 172.86 361.82 171.15 369.6 167.89L368.04 154.67C361.66 157.77 353.41 159.64 345.47 159.64C330.07 159.64 322.14 151.55 322.59 133.65H371.92C372.23 130.7 372.38 128.05 372.38 125.87C372.38 107.51 362.89 92.4102 340.8 92.4102H340.81Z" fill="#009DC5"/>
<path fill-rule="evenodd" clip-rule="evenodd" d="M163.14 66.73C156.23 66.73 151.22 62.83 151.22 55.3C151.22 48.38 156.01 42.98 164.03 42.98C166.47 42.98 168.86 43.33 171.26 44.04L170.42 48.21C168.38 47.41 166.3 46.96 164.08 46.96C159.78 46.96 156.32 49.66 156.32 54.9C156.32 59.82 159.29 62.52 163.59 62.52C164.79 62.52 165.98 62.34 166.96 62.08V54.33H171.74V65.18C169.08 66.2 166.29 66.73 163.14 66.73Z" fill="#009DC5"/>
<path fill-rule="evenodd" clip-rule="evenodd" d="M185.97 46.8699C185.17 46.8699 184.55 46.8699 183.93 46.9599V53.6199C184.6 53.6599 185.39 53.6999 186.15 53.6999C188.68 53.6999 190.31 52.2299 190.31 50.0699C190.31 47.9099 188.67 46.8699 185.97 46.8699ZM190.75 66.3699L184.15 56.8899H183.92V66.3699H179.14V43.3199C180.82 43.2299 183.84 43.1899 186.67 43.1899C192.17 43.1899 195.36 45.3199 195.36 49.5699C195.36 53.3399 192.74 55.5999 189.06 56.1699C189.59 56.7899 190.21 57.6799 190.92 58.6599L196.64 66.3699H190.74H190.75Z" fill="#009DC5"/>
<path fill-rule="evenodd" clip-rule="evenodd" d="M211.89 66.7701C205.2 66.7701 201.87 63.6201 201.87 58.3501V43.3301H206.65V57.3801C206.65 61.1401 208.6 62.7901 212.19 62.7901C216.14 62.7901 217.64 60.5801 217.64 57.0301V43.3301H222.38V57.5601C222.38 62.5701 219.28 66.7801 211.87 66.7801L211.89 66.7701Z" fill="#009DC5"/>
<path fill-rule="evenodd" clip-rule="evenodd" d="M237.2 47.0499C236.32 47.0499 235.47 47.0499 234.85 47.0999V54.8999C235.38 55.0299 236.27 55.0699 236.89 55.0699C239.86 55.0699 241.68 53.6499 241.68 50.9499C241.68 48.6899 240.17 47.0499 237.2 47.0499ZM236.89 58.8799C236.32 58.8799 235.43 58.8399 234.85 58.7899V66.3699H230.06V43.3199C232.01 43.2699 234.89 43.1899 237.59 43.1899C243.44 43.1899 246.77 45.9799 246.77 50.6299C246.77 55.6899 242.73 58.8799 236.89 58.8799Z" fill="#009DC5"/>
<path fill-rule="evenodd" clip-rule="evenodd" d="M261.75 47.1002C258.25 47.1002 255.19 49.7602 255.19 54.7202C255.19 59.1102 257.05 62.5702 261.57 62.5702C265.25 62.5702 268.26 60.0802 268.26 54.9402C268.26 49.8002 265.69 47.1002 261.74 47.1002H261.75ZM261.31 66.7702C253.82 66.7702 250.1 61.9902 250.1 55.0702C250.1 47.4902 255.68 42.9302 262.07 42.9302C268.46 42.9302 273.42 46.8302 273.42 54.6302C273.42 62.4302 267.93 66.7802 261.32 66.7802L261.31 66.7702Z" fill="#009DC5"/>
<path fill-rule="evenodd" clip-rule="evenodd" d="M401.96 111.09H401.65C402.74 105.17 403.2 98.32 403.2 93.96H387.32V171.31H403.97V139.87C403.97 116.68 411.46 105.95 426.85 108.74L427.63 92.4C413.16 91 405.38 100.64 401.97 111.08L401.96 111.09Z" fill="#009DC5"/>
<path fill-rule="evenodd" clip-rule="evenodd" d="M486.22 157.24C482.92 158.14 478.88 158.74 474.83 158.74C460.3 158.74 450.26 149.6 450.26 132.96C450.26 115.29 461.95 106.14 476.49 106.14C483.99 106.14 491.03 107.64 497.92 110.34L500.76 96.2599C492.67 93.8499 484.58 92.6499 476.33 92.6499C449.22 92.6499 433.03 110.94 433.03 134.3C433.03 159.79 449.96 172.97 473.34 172.97C483.98 172.97 493.42 171.17 502.4 167.72V131.01H486.22V157.24Z" fill="#009DC5"/>
<path d="M534.89 93.96H518.24V171.31H534.89V93.96Z" fill="#009DC5"/>
<path fill-rule="evenodd" clip-rule="evenodd" d="M660.56 134.41C660.56 145.47 652.94 159.93 641.57 159.93C638.78 159.93 636.58 159.5 634.93 158.61C630.66 156.33 626.38 145.27 634.59 138.64C636.69 136.95 639.82 135.64 643.29 134.76C647.09 133.81 652.46 132.85 660.56 132.85V134.41ZM677.67 171.44C677.36 164.9 677.2 156.96 677.2 150.27V118.6C677.2 102.73 670.66 92.46 647.01 92.46C637.05 92.46 627.39 94.63 619.77 97.59L621.33 111.76C627.87 107.71 637.2 105.53 644.37 105.53C656.48 105.53 660.53 112.04 660.54 121.65C644.47 121.65 628.75 125.58 620.58 133.88C618.33 136.16 616.75 138.53 615.44 141.55C611.63 150.31 614.15 158.33 617.63 163.55C622.4 170.67 627.72 173.19 636.59 173.02C648.88 172.76 658.53 166.16 662.26 156.98L662.43 157.14C661.81 161.34 661.65 166.47 661.65 171.45H677.68L677.67 171.44Z" fill="#009DC5"/>
<path fill-rule="evenodd" clip-rule="evenodd" d="M567.75 113.75C567.77 107.9 575.68 105.25 584.98 105.23C590.03 105.23 595.52 106.08 600.21 107.96L600.96 95.2001C597.1 93.6201 590.88 92.9301 586.31 92.9501C565.04 92.9701 550.45 102.1 550.4 115.3C550.31 141.73 588.21 135.83 588.15 151.18C588.12 157.48 582.48 158.56 573.33 158.56C567.35 158.56 557.9 156.21 552.5 153.8L551.99 168.56C557 170.58 566.53 172.4 572.35 172.39C593.31 172.38 605.77 163.91 605.82 149.64C605.91 124.28 567.7 128.5 567.76 113.75H567.75Z" fill="#009DC5"/>
</g>
<defs>
<clipPath id="clip0_4_3682">
<rect width="677.67" height="219.62" fill="white"/>
</clipPath>
</defs>
</svg>
